<svg xmlns="http://www.w3.org/2000/svg" width="1600" height="900" viewBox="0 0 1600 900" role="img" aria-label="Financial Dream Planner what-if simulator"><defs><style>.b{font:700 29px Georgia,serif;fill:#132642}.h{font:700 58px Georgia,serif;fill:#132642}.s{font:400 21px Arial,sans-serif;fill:#40506a}.t{font:700 22px Georgia,serif;fill:#132642}.m{font:700 27px Arial,sans-serif;fill:#132642}.x{font:400 16px Arial,sans-serif;fill:#687187}.r{fill:#bd6552}</style></defs><rect width="1600" height="900" fill="#fbf3e4"/><circle cx="1510" cy="70" r="190" fill="#ddd5f4" opacity=".36"/><g transform="translate(60 52)"><path d="M0 0h25v48L0 35z" fill="#7465d2"/><path d="M31 0h25v35L31 48z" fill="#82a28a"/><text x="78" y="37" class="b">Financial Dream Planner</text></g><text x="62" y="180" class="h"><tspan fill="#7465d2">07 — </tspan>Ask</text><text x="62" y="245" class="h">what <tspan fill="#7465d2">if</tspan></text><text x="65" y="300" class="s">Simulate decisions before making them.</text><text x="65" y="348" class="x">Explore the impact of big decisions on goals, cash flow and future wealth.</text><rect x="445" y="110" width="840" height="665" rx="26" fill="#fffdf8" stroke="#c8c0d5" stroke-width="2"/><text x="480" y="162" class="b">Scenario Simulator</text><rect x="480" y="198" width="735" height="62" rx="16" fill="#eee9fb"/><text x="505" y="237" class="t">What if I buy a ₹15L car next year?</text><g transform="translate(490 300)"><text class="x">Purchase amount</text><text y="34" class="t">₹15,00,000</text><rect y="55" width="190" height="9" rx="5" fill="#e3ded8"/><rect y="55" width="110" height="9" rx="5" fill="#7465d2"/></g><g transform="translate(730 300)"><text class="x">Down payment</text><text y="34" class="t">₹3,00,000</text><rect y="55" width="190" height="9" rx="5" fill="#e3ded8"/><rect y="55" width="40" height="9" rx="5" fill="#7465d2"/></g><g transform="translate(970 300)"><text class="x">Loan amount</text><text y="34" class="t">₹12,00,000</text><rect y="55" width="190" height="9" rx="5" fill="#e3ded8"/><rect y="55" width="150" height="9" rx="5" fill="#7465d2"/></g><g transform="translate(490 420)"><text class="x">Tenure</text><text y="34" class="t">5 years</text><rect y="55" width="190" height="9" rx="5" fill="#e3ded8"/><rect y="55" width="123" height="9" rx="5" fill="#7465d2"/></g><g transform="translate(730 420)"><text class="x">Interest rate</text><text y="34" class="t">9.0%</text><rect y="55" width="190" height="9" rx="5" fill="#e3ded8"/><rect y="55" width="75" height="9" rx="5" fill="#7465d2"/></g><g transform="translate(970 420)"><text class="x">SIP contribution</text><text y="34" class="t">₹18,000</text><rect y="55" width="190" height="9" rx="5" fill="#e3ded8"/><rect y="55" width="80" height="9" rx="5" fill="#7465d2"/></g><rect x="480" y="555" width="400" height="175" rx="18" fill="#fffaf2"/><text x="505" y="592" class="t">Impact overview</text><text x="505" y="630" class="x">Net worth at retirement</text><text x="850" y="630" class="t r" text-anchor="end">−₹18.6L</text><text x="505" y="665" class="x">Goal success rate</text><text x="850" y="665" class="t r" text-anchor="end">−12%</text><text x="505" y="700" class="x">Financial freedom</text><text x="850" y="700" class="t r" text-anchor="end">+1.8 yrs</text><rect x="900" y="555" width="315" height="175" rx="18" fill="#fffaf2"/><text x="925" y="592" class="t">Net worth path</text><polyline points="930,690 980,670 1030,640 1080,610 1130,585 1180,565" fill="none" stroke="#7465d2" stroke-width="4"/><polyline points="930,690 980,678 1030,660 1080,640 1130,615 1180,600" fill="none" stroke="#82a28a" stroke-width="4"/><rect x="1320" y="150" width="225" height="585" rx="38" fill="#fffaf2" stroke="#9ca5b4" stroke-width="2"/><rect x="1375" y="170" width="115" height="22" rx="11" fill="#17233a"/><text x="1350" y="230" class="t">Scenario</text><text x="1350" y="265" class="x">₹15L car next year</text><text x="1350" y="325" class="x">Purchase amount</text><text x="1350" y="355" class="t">₹15,00,000</text><text x="1350" y="420" class="x">Down payment</text><text x="1350" y="450" class="t">₹3,00,000</text><text x="1350" y="515" class="x">Loan amount</text><text x="1350" y="545" class="t">₹12,00,000</text><text x="1350" y="610" class="t">Impact</text><text x="1350" y="645" class="x">Net worth −₹18.6L</text><text x="1350" y="677" class="x">Goals −12%</text><path d="M35 810 q95 -130 190 0t190 0" fill="none" stroke="#b9c8e8" stroke-width="36" opacity=".45"/></svg>