<svg xmlns="http://www.w3.org/2000/svg" width="1600" height="900" viewBox="0 0 1600 900" role="img" aria-label="Living plan drift"><defs><style>.b{font:700 29px Georgia,serif;fill:#132642}.h{font:700 54px Georgia,serif;fill:#132642}.s{font:400 21px Arial,sans-serif;fill:#40506a}.t{font:700 23px Georgia,serif;fill:#132642}.m{font:700 27px Arial,sans-serif;fill:#132642}.x{font:400 17px Arial,sans-serif;fill:#687187}.r{fill:#bd6552}.p{stroke:#7465d2;stroke-width:4;fill:none}</style><marker id="a" viewBox="0 0 10 10" refX="9" refY="5" markerWidth="7" markerHeight="7" orient="auto"><path d="M0 0L10 5L0 10z" fill="#7465d2"/></marker></defs><rect width="1600" height="900" fill="#fbf3e4"/><circle cx="1510" cy="70" r="190" fill="#ddd5f4" opacity=".35"/><g transform="translate(60 52)"><path d="M0 0h25v48L0 35z" fill="#7465d2"/><path d="M31 0h25v35L31 48z" fill="#82a28a"/><text x="78" y="37" class="b">Financial Dream Planner</text></g><text x="62" y="175" class="h">A plan that notices when life changes</text><text x="65" y="225" class="s">Observed behavior is compared with the accepted baseline. Detection never silently rewrites the plan.</text><rect x="80" y="320" width="330" height="310" rx="28" fill="#fffdf8" stroke="#c8c0d5" stroke-width="2"/><text x="120" y="375" class="t">Accepted baseline</text><rect x="120" y="415" width="250" height="72" rx="16" fill="#eee9fb"/><text x="145" y="444" class="x">Monthly food baseline</text><text x="145" y="474" class="m">₹6,000</text><rect x="120" y="510" width="250" height="72" rx="16" fill="#e6efe3"/><text x="145" y="539" class="x">Emergency runway</text><text x="145" y="569" class="m">4.8 months</text><text x="120" y="615" class="x">Immutable snapshot + plan version</text><rect x="80" y="675" width="330" height="125" rx="22" fill="#f2eadc"/><text x="120" y="718" class="t">Observed state</text><text x="120" y="755" class="x">Food recurring spend</text><text x="120" y="787" class="m r">₹9,500</text><path d="M425 485H585" class="p" marker-end="url(#a)"/><path d="M425 730 C520 700 530 535 585 520" class="p" marker-end="url(#a)"/><rect x="600" y="340" width="370" height="345" rx="28" fill="#fffdf8" stroke="#abc1ae" stroke-width="2"/><text x="640" y="395" class="t">Deterministic drift check</text><text x="640" y="438" class="x">Policy: DRIFT-IN-2026.1</text><rect x="640" y="470" width="290" height="78" rx="17" fill="#e6efe3"/><text x="665" y="502" class="t">Material change detected</text><text x="665" y="530" class="x">actual vs accepted state</text><text x="655" y="590" class="x">• Spending above baseline</text><text x="655" y="625" class="x">• Goal impact recalculated</text><text x="655" y="660" class="x">• Finding remains immutable</text><path d="M985 515H1105" class="p" marker-end="url(#a)"/><rect x="1120" y="310" width="395" height="405" rx="28" fill="#fffdf8" stroke="#c8c0d5" stroke-width="2"/><text x="1160" y="365" class="t">What changed?</text><rect x="1160" y="405" width="315" height="78" rx="16" fill="#f5e9e6"/><text x="1185" y="435" class="x">Monthly surplus</text><text x="1445" y="446" class="m r" text-anchor="end">−₹3,500</text><rect x="1160" y="505" width="315" height="78" rx="16" fill="#f2eadc"/><text x="1185" y="535" class="x">Home goal</text><text x="1445" y="546" class="m r" text-anchor="end">+7 months</text><rect x="1160" y="605" width="315" height="78" rx="16" fill="#e6efe3"/><text x="1185" y="635" class="x">Recommended action</text><text x="1185" y="668" class="t">Review your baseline</text><text x="620" y="760" class="t">You stay in control</text><rect x="620" y="790" width="210" height="65" rx="20" fill="#eee9fb"/><text x="725" y="830" class="t" text-anchor="middle">Keep baseline</text><rect x="850" y="790" width="210" height="65" rx="20" fill="#f2eadc"/><text x="955" y="830" class="t" text-anchor="middle">Review data</text><rect x="1080" y="790" width="385" height="65" rx="20" fill="#e6efe3"/><text x="1272" y="830" class="t" text-anchor="middle">Accept → create new plan version</text><text x="1490" y="875" class="x" text-anchor="end">Only Accept can advance the baseline.</text></svg>